<?xml version="1.0" standalone="no"?>
<!DOCTYPE svg PUBLIC "-//W3C//DTD SVG 20010904//EN"
 "http://www.w3.org/TR/2001/REC-SVG-20010904/DTD/svg10.dtd">
<svg version="1.0" xmlns="http://www.w3.org/2000/svg"
 width="700.000000pt" height="700.000000pt" viewBox="0 0 700.000000 700.000000"
 preserveAspectRatio="xMidYMid meet">
<metadata>
Created by potrace 1.14, written by Peter Selinger 2001-2017
</metadata>
<g transform="translate(0.000000,700.000000) scale(0.100000,-0.100000)"
fill="#000000" stroke="none">
<path d="M3062 6734 c-63 -31 -101 -78 -117 -142 -7 -30 -11 -142 -10 -315 l0
-267 -40 -11 c-169 -45 -376 -130 -526 -214 -34 -20 -66 -34 -71 -33 -5 2 -97
91 -206 199 -109 108 -213 203 -234 212 -47 22 -133 21 -183 -2 -26 -12 -134
-112 -311 -288 -252 -252 -271 -273 -287 -325 -21 -66 -15 -125 19 -183 13
-22 108 -125 212 -228 l189 -189 -71 -141 c-73 -143 -126 -277 -167 -419 l-22
-77 -296 -3 -296 -3 -46 -27 c-45 -27 -89 -80 -104 -128 -4 -14 -8 -108 -9
-208 -1 -155 1 -185 14 -191 16 -8 1436 -8 1443 -1 3 3 8 49 11 103 35 530
344 1006 816 1260 47 25 110 55 140 67 30 11 64 25 75 30 26 12 199 57 251 64
132 19 178 23 288 21 122 -2 197 -9 271 -25 22 -5 54 -11 71 -14 59 -11 237
-77 328 -123 265 -132 491 -343 641 -598 69 -116 139 -280 160 -371 32 -141
46 -226 51 -309 4 -55 10 -102 14 -105 7 -4 1408 -5 1445 -1 7 1 10 70 9 194
0 180 -2 196 -23 240 -13 26 -37 59 -55 72 -70 53 -84 55 -389 55 l-283 0 -29
98 c-40 137 -106 298 -175 429 l-58 112 194 195 c107 107 204 214 216 237 30
58 30 140 -1 199 -29 56 -531 559 -581 582 -53 24 -107 28 -164 11 -46 -13
-71 -35 -257 -220 l-206 -205 -104 55 c-155 81 -386 174 -478 192 -62 12 -57
-11 -57 291 1 306 -4 340 -64 402 -65 68 -54 67 -490 70 l-395 3 -53 -27z"/>
<path d="M3385 4693 c-129 -15 -283 -72 -400 -148 -229 -148 -383 -383 -426
-650 -10 -67 -13 -227 -5 -272 3 -11 7 -38 10 -58 9 -53 60 -204 84 -247 42
-74 48 -84 85 -136 119 -166 340 -316 524 -358 131 -29 297 -37 393 -20 361
67 643 309 754 646 36 111 40 141 41 295 0 152 -5 192 -36 286 -50 153 -123
273 -234 385 -138 140 -304 227 -510 269 -36 8 -237 13 -280 8z"/>
<path d="M1433 3340 c-340 -5 -343 -5 -365 -28 l-23 -23 -5 -712 -5 -712 -200
1 c-206 1 -234 -4 -266 -42 -11 -14 -14 -73 -15 -314 l0 -296 96 0 95 0 0 215
c-1 119 1 223 3 231 2 13 33 15 203 15 217 -1 247 5 268 51 8 18 11 225 11
724 l0 700 374 0 c214 0 385 4 400 10 60 22 76 103 30 151 -26 27 -30 28 -143
31 -64 2 -270 1 -458 -2z"/>
<path d="M5110 3340 c-63 -3 -122 -9 -132 -14 -24 -11 -45 -62 -40 -96 2 -17
17 -41 34 -55 l30 -25 384 0 384 0 0 -700 c0 -501 3 -706 11 -724 22 -47 56
-53 271 -52 125 1 199 -3 201 -9 2 -5 3 -109 2 -231 l0 -221 96 1 96 0 -1 298
-1 298 -27 27 -28 27 -212 1 -213 1 -5 712 -5 711 -23 23 c-22 23 -25 23 -365
28 -188 3 -394 3 -457 0z"/>
<path d="M4902 2760 c-167 -5 -172 -6 -197 -30 -13 -14 -26 -36 -28 -50 -6
-34 21 -86 50 -99 15 -7 99 -11 221 -11 l198 0 -1 -671 c0 -369 2 -674 5 -678
3 -4 47 -7 98 -7 l92 -1 0 736 c0 716 -1 737 -20 769 -11 17 -21 33 -22 33
-17 7 -261 13 -396 9z"/>
<path d="M1704 2743 c-12 -10 -26 -27 -32 -38 -6 -13 -10 -280 -10 -756 l1
-736 91 0 c50 1 93 4 96 8 3 4 5 309 5 678 l-1 671 201 0 c218 0 231 3 259 58
14 30 7 73 -20 107 -14 19 -28 20 -292 23 -252 2 -279 0 -298 -15z"/>
<path d="M2863 2566 l-28 -24 -3 -664 -2 -664 95 0 c89 -1 95 1 96 20 0 12 1
303 1 648 1 471 -2 634 -11 656 -23 55 -100 69 -148 28z"/>
<path d="M4009 2561 c-16 -16 -29 -40 -30 -53 0 -13 -1 -309 -2 -659 l-2 -636
98 0 97 1 0 649 c0 558 -2 652 -15 677 -30 59 -98 68 -146 21z"/>
<path d="M600 1022 c-147 -19 -285 -137 -326 -278 -40 -139 -3 -284 98 -385
124 -124 310 -152 462 -70 70 37 135 106 170 181 28 59 31 74 31 165 0 93 -3
104 -34 167 -50 101 -135 173 -241 206 -39 12 -121 20 -160 14z"/>
<path d="M1680 1016 c-151 -31 -275 -153 -308 -302 -23 -103 10 -236 78 -323
45 -57 78 -82 157 -119 50 -23 70 -26 148 -26 113 1 183 26 256 91 94 85 137
180 135 298 -2 86 -16 134 -58 205 -82 136 -249 208 -408 176z"/>
<path d="M2859 1019 c-110 -17 -234 -110 -282 -212 -130 -274 69 -576 371
-563 104 5 175 37 253 115 83 83 112 151 113 261 1 93 -6 126 -36 186 -77 156
-243 240 -419 213z"/>
<path d="M3994 1014 c-124 -25 -221 -102 -277 -221 -29 -62 -32 -77 -31 -158
1 -68 6 -104 23 -147 26 -67 101 -154 164 -191 180 -105 415 -51 526 121 57
89 75 175 59 278 -34 219 -245 364 -464 318z"/>
<path d="M5170 1019 c-67 -13 -165 -66 -211 -116 -201 -219 -102 -572 183
-647 133 -36 278 4 378 103 51 50 98 136 106 191 2 17 6 43 8 58 15 115 -63
275 -172 351 -73 51 -199 77 -292 60z"/>
<path d="M6263 1014 c-120 -31 -213 -106 -266 -213 -30 -61 -32 -74 -32 -166
0 -91 3 -106 31 -166 118 -248 436 -304 631 -111 174 172 145 461 -61 601 -83
57 -210 79 -303 55z"/>
</g>
</svg>
